# xmcd
#
# Track frame offsets: 
#        150
#        12591
#        24550
#        33899
#        47948
#        59686
#        82593
#        93407
#        108146
#        122794
#        132744
#        149843
#        164024
#        173200
#        189767
#        198010
#        207079
#        220094
#        235681
#        246758
#        255809
#        271144
#        293943
#
# Disc length: 4026 seconds
#
# Revision: 0
# Processed by: cddbd v1.5.2PL0 Copyright (c) Steve Scherf et al.
# Submitted via: ExactAudioCopy v0.99pb5
#
DISCID=450fb817
DTITLE=Bassholes - Broke Chamber Music: Early Singles And Unreleased 1
DTITLE=992-1994
DYEAR=2004
DGENRE=Blues
TTITLE0=98 In The Shade
TTITLE1=Cigarette Blues
TTITLE2=Wooden Tit
TTITLE3=Little Rug Bug
TTITLE4=Jelly Belly (Live)
TTITLE5=John Henry
TTITLE6=Melody For An Unchained Girl
TTITLE7=20-20 Vision
TTITLE8=Hokey Pokey
TTITLE9=Haunted Hill
TTITLE10=Red Leaves
TTITLE11=Cockrocach Blues
TTITLE12=Then Again, No
TTITLE13=Pneumonia
TTITLE14=Frankie And Albert
TTITLE15=Lion's Share
TTITLE16=Hey O.J.
TTITLE17=Jesus Book
TTITLE18=Baby Go
TTITLE19=(She Said I Had A) Problem
TTITLE20=Hell Blues
TTITLE21=Changes Had To Come
TTITLE22=Call Me Green (I'm A Schizophrene)
EXTD=
EXTT0=
EXTT1=
EXTT2=
EXTT3=
EXTT4=
EXTT5=
EXTT6=
EXTT7=
EXTT8=
EXTT9=
EXTT10=
EXTT11=
EXTT12=
EXTT13=
EXTT14=
EXTT15=
EXTT16=
EXTT17=
EXTT18=
EXTT19=
EXTT20=
EXTT21=
EXTT22=
PLAYORDER=
